HIERARCHY
ROOT Hips
{
	OFFSET 0.000000 0.000000 0.000000
	CHANNELS 6 Xposition Yposition Zposition Zrotation Yrotation Xrotation 
	JOINT LHipJoint
	{
		OFFSET 0.000000 0.000000 0.000000
		CHANNELS 3 Zrotation Yrotation Xrotation
		JOINT LeftUpLeg
		{
			OFFSET 1.363060 -1.794630 0.839290
			CHANNELS 3 Zrotation Yrotation Xrotation
			JOINT LeftLeg
			{
				OFFSET 2.448110 -6.726130 0.000000
				CHANNELS 3 Zrotation Yrotation Xrotation
				JOINT LeftFoot
				{
					OFFSET 2.562200 -7.039590 0.000000
					CHANNELS 3 Zrotation Yrotation Xrotation
					JOINT LeftToeBase
					{
						OFFSET 0.157640 -0.433110 2.322550
						CHANNELS 3 Zrotation Yrotation Xrotation
						End Site
						{
							OFFSET 0.000000 0.000000 0.000000
						}
					}
				}
			}
		}
	}
	JOINT RHipJoint
	{
		OFFSET 0.000000 0.000000 0.000000
		CHANNELS 3 Zrotation Yrotation Xrotation
		JOINT RightUpLeg
		{
			OFFSET -1.305520 -1.794630 0.839290
			CHANNELS 3 Zrotation Yrotation Xrotation
			JOINT RightLeg
			{
				OFFSET -2.542530 -6.985550 0.000000
				CHANNELS 3 Zrotation Yrotation Xrotation
				JOINT RightFoot
				{
					OFFSET -2.568260 -7.056230 0.000000
					CHANNELS 3 Zrotation Yrotation Xrotation
					JOINT RightToeBase
					{
						OFFSET -0.164730 -0.452590 2.363150
						CHANNELS 3 Zrotation Yrotation Xrotation
						End Site
						{
							OFFSET 0.000000 0.000000 0.000000
						}
					}
				}
			}
		}
	}
}
MOTION
Frames: 27
Frame Time: 0.008333
2.045120 15.790928 -0.785338 114.270726 -85.285012 -73.502007 -8.175032 -2.163679 -0.321656 -13.922414 -3.932835 -83.304944 0.689539 5.278498 66.961182 3.739040 18.990388 2.867141 4.638400 0.000000 -51.273400 8.513309 1.439777 1.058220 10.482552 4.020537 -73.542361 1.519980 -4.635979 54.280843 -2.963531 -6.451484 -21.830922 1.465500 0.000000 -47.779300
2.044512 15.841174 -0.816579 112.486308 -85.141731 -72.574038 -8.096103 -2.240914 -0.423584 -14.119537 -4.043016 -83.326815 0.929342 5.293915 68.399032 3.841112 20.058552 5.407768 5.668400 -0.000000 -50.817400 8.601920 1.498746 0.913737 10.409159 3.521229 -72.169379 1.535795 -4.547225 53.699043 -2.955144 -6.532334 -21.713600 1.464200 0.000000 -47.949700
2.043866 15.891740 -0.846931 110.983228 -84.985886 -71.940488 -8.015553 -2.307563 -0.542389 -14.434170 -4.121103 -83.381182 1.144863 5.320671 69.885511 3.922840 20.999569 7.886146 6.699600 -0.000000 -50.075700 8.690987 1.555809 0.771560 10.315978 3.024210 -70.775056 1.549387 -4.454965 53.098385 -2.945550 -6.614258 -21.579927 1.460500 0.000000 -48.146600
2.043188 15.942203 -0.876157 109.690784 -84.823371 -71.515420 -7.934749 -2.362944 -0.672939 -14.852305 -4.180192 -83.491965 1.339256 5.360839 71.414991 3.976486 21.756110 10.253005 7.677300 -0.000001 -49.116800 8.779284 1.609627 0.635019 10.204035 2.540648 -69.378870 1.560204 -4.359620 52.479325 -2.936590 -6.703683 -21.428024 1.454400 -0.000000 -48.371400
2.042482 15.992216 -0.903718 108.431128 -84.666878 -71.103838 -7.855715 -2.408867 -0.805968 -15.344143 -4.245757 -83.688024 1.518714 5.414429 72.981668 3.996735 22.276227 12.474491 8.546200 0.000000 -48.107200 8.864216 1.657531 0.504086 10.087255 2.072159 -67.999622 1.570142 -4.262833 51.841226 -2.929600 -6.803400 -21.259351 1.446299 0.000000 -48.588300
2.030860 16.036988 -0.913195 98.572504 -84.799786 -61.868087 -7.788525 -2.473015 -0.632448 -15.296663 -5.211198 -84.356293 1.755602 5.388108 74.614628 4.019592 22.635260 14.770263 9.400300 -0.000000 -47.146800 8.921630 1.642132 0.290770 10.524095 1.043177 -66.903627 1.691001 -4.239038 51.161448 -2.927894 -6.841392 -21.199781 1.451800 -0.000001 -48.664600
2.030647 16.085212 -0.938128 97.493995 -84.636949 -61.559756 -7.710622 -2.498830 -0.758714 -15.901767 -5.357738 -84.782803 1.916988 5.471414 76.232613 3.966662 22.580774 16.647414 9.913800 -0.000000 -46.295900 8.998479 1.688111 0.171046 10.381718 0.610704 -65.609668 1.696143 -4.137901 50.497236 -2.927558 -6.971462 -20.997792 1.440400 -0.000001 -48.894200
2.031064 16.131965 -0.961562 96.210962 -84.482900 -60.987468 -7.628481 -2.517152 -0.870689 -16.522692 -5.579948 -85.367602 2.079865 5.566376 77.858071 3.879028 22.218387 18.365384 10.211000 -0.000000 -45.743700 9.072941 1.733810 0.057236 10.238180 0.200598 -64.387015 1.700331 -4.038867 49.827553 -2.931665 -7.117980 -20.783331 1.427601 0.000000 -49.114400
2.032137 16.176919 -0.983622 94.679393 -84.336524 -60.096079 -7.539841 -2.529823 -0.963630 -17.139621 -5.898254 -86.125178 2.246564 5.670660 79.471310 3.759976 21.555167 19.948804 10.288800 -0.000000 -45.602800 9.144769 1.780785 -0.053630 10.099847 -0.192916 -63.247784 1.704805 -3.943462 49.158401 -2.939491 -7.276186 -20.559834 1.413100 -0.000001 -49.320600
2.034254 16.219857 -1.004434 92.881991 -84.195374 -58.866012 -7.442659 -2.538464 -1.035466 -17.736947 -6.324865 -87.061141 2.417332 5.782229 81.048149 3.613044 20.605340 21.415417 10.150100 -0.000000 -45.822500 9.213576 1.830941 -0.165947 9.972730 -0.578439 -62.199500 1.710982 -3.853305 48.497074 -2.949420 -7.437847 -20.331785 1.396700 -0.000000 -49.503200
2.037700 16.260550 -1.024247 90.835215 -84.054926 -57.313588 -7.335084 -2.543909 -1.085108 -18.302071 -6.866490 -88.171479 2.589674 5.898252 82.554626 3.443277 19.400336 22.794983 9.814200 0.000000 -46.406900 9.279156 1.885973 -0.284666 9.861935 -0.967754 -61.246231 1.720409 -3.770043 47.851343 -2.959106 -7.592310 -20.102621 1.377800 -0.000000 -49.665600
2.042581 16.298741 -1.043305 88.585191 -83.909226 -55.484840 -7.215964 -2.545961 -1.112457 -18.825238 -7.523572 -89.445218 2.758808 6.015862 83.950060 3.256394 17.981184 24.115900 9.307200 0.000000 -47.338200 9.341098 1.946940 -0.414474 9.771803 -1.373266 -60.390984 1.734898 -3.695306 47.229275 -2.965476 -7.725620 -19.876348 1.355700 -0.000000 -49.808800
2.049058 16.334265 -1.061866 86.194207 -83.751815 -53.445904 -7.084801 -2.543541 -1.118089 -19.299731 -8.291908 -90.865159 2.918088 6.132059 85.188539 3.058721 16.397419 25.404711 8.660700 0.000000 -48.586800 9.398780 2.014388 -0.559615 9.705309 -1.808005 -59.634994 1.756081 -3.630724 46.638917 -2.965266 -7.823806 -19.655140 1.329700 0.000000 -49.941700
2.057202 16.366929 -1.080147 83.740510 -83.576800 -51.278753 -6.942107 -2.534423 -1.103122 -19.722127 -9.162477 -92.411619 3.060111 6.244575 86.223748 2.856073 14.699339 26.670335 7.903200 0.000000 -50.036000 9.451229 2.087949 -0.722839 9.664492 -2.282885 -58.980908 1.785601 -3.577930 46.088489 -2.955204 -7.872323 -19.441995 1.299300 0.000000 -50.071500
2.066963 16.396505 -1.098260 81.293833 -83.379669 -49.055888 -6.789452 -2.515927 -1.067686 -20.088035 -10.125998 -94.065372 3.177459 6.351417 87.011131 2.653718 12.938741 27.909985 7.063300 -0.000001 -51.515600 9.496958 2.166038 -0.905296 9.652059 -2.806652 -58.432838 1.825052 -3.538508 45.585301 -2.932451 -7.858445 -19.238733 1.264100 -0.000000 -50.200400
2.078201 16.422760 -1.116405 78.936600 -83.157577 -46.860762 -6.628917 -2.484727 -1.012317 -20.394431 -11.169879 -95.805872 3.262437 6.450928 87.505996 2.455614 11.164069 29.119018 6.169500 -0.000000 -52.985299 9.534654 2.246763 -1.105834 9.667187 -3.380873 -57.995007 1.875016 -3.513545 45.135703 -2.895323 -7.774672 -19.045937 1.224000 0.000000 -50.348600
2.090844 16.445533 -1.134538 76.713730 -82.910516 -44.740328 -6.463524 -2.437545 -0.936194 -20.635014 -12.283820 -97.616105 3.308760 6.541847 87.670071 2.264202 9.419143 30.278685 5.248399 -0.000000 -54.379100 9.562507 2.327486 -1.322117 9.711869 -4.004395 -57.673885 1.936224 -3.504142 44.744914 -2.842910 -7.616085 -18.865056 1.179100 0.000000 -50.521700
2.104376 16.464532 -1.152478 74.658775 -82.640318 -42.722084 -6.297464 -2.370330 -0.836711 -20.801737 -13.460613 -99.485886 3.312387 6.624113 87.474365 2.079408 7.737867 31.350130 4.321800 0.000000 -55.482700 9.578724 2.404708 -1.549245 9.787959 -4.670222 -57.479823 2.009051 -3.511183 44.418007 -2.775325 -7.381420 -18.697866 1.130101 -0.000000 -50.707200
2.118606 16.479597 -1.170106 72.797640 -82.350432 -40.830034 -6.135399 -2.279116 -0.712230 -20.886919 -14.689484 -101.405829 3.270587 6.698635 86.895726 1.898815 6.143716 32.287879 3.409000 -0.000000 -56.143100 9.581880 2.475672 -1.781111 9.895059 -5.363565 -57.421163 2.092594 -3.534839 44.158091 -2.694259 -7.076699 -18.545402 1.077700 0.000000 -50.906701
2.133263 16.490585 -1.187215 71.121979 -82.047376 -39.052128 -5.982532 -2.160642 -0.560158 -20.877113 -15.960395 -103.363626 3.179525 6.764904 85.906278 1.720427 4.660305 33.083594 2.535100 0.000000 -56.702000 9.570527 2.537549 -2.012701 10.035952 -6.066566 -57.499994 2.185889 -3.574494 43.963638 -2.602542 -6.713143 -18.408737 1.023200 0.000001 -51.123400
2.147939 16.497347 -1.203528 69.636604 -81.735213 -37.384888 -5.845497 -2.010022 -0.376935 -20.766692 -17.266641 -105.357853 3.039013 6.826149 84.497339 1.538606 3.297051 33.679281 1.715301 0.000000 -56.849700 9.543873 2.588013 -2.235819 10.208209 -6.756254 -57.727158 2.286942 -3.629698 43.836771 -2.503747 -6.304344 -18.290567 0.968100 -0.000001 -51.334400
2.162405 16.499882 -1.218817 68.321170 -81.419771 -35.802039 -5.731562 -1.823442 -0.158970 -20.548304 -18.599733 -107.380630 2.846275 6.884402 82.653939 1.348882 2.066136 34.058502 0.970100 0.000000 -56.760200 9.501249 2.625198 -2.444704 10.411980 -7.408700 -58.104707 2.393648 -3.699141 43.774147 -2.402185 -5.868223 -18.192485 0.913900 0.000000 -51.530000
2.176431 16.498225 -1.232942 67.154730 -81.104766 -34.276120 -5.649226 -1.596964 0.098099 -20.221511 -19.952791 -109.423029 2.597420 6.942815 80.365380 1.146287 0.976902 34.205827 0.318099 0.000000 -56.501599 9.442553 2.647977 -2.633914 10.644491 -8.000000 -58.633601 2.503453 -3.781228 43.771441 -2.302400 -5.424233 -18.115765 0.862100 0.000000 -51.695900
2.189854 16.492505 -1.245759 66.116872 -80.793208 -32.780314 -5.607933 -1.327252 0.399661 -19.791933 -21.321511 -111.474186 2.285639 7.004755 77.621305 0.926408 0.039595 34.117998 -0.222200 -0.000000 -56.181000 9.368155 2.656003 -2.799813 10.901882 -8.508715 -59.312432 2.613861 -3.874290 43.823459 -2.208692 -4.991342 -18.061683 0.814100 -0.000000 -51.819500
2.202643 16.482879 -1.257239 65.191575 -80.486331 -31.294841 -5.618122 -1.012429 0.752045 -19.275038 -22.702369 -113.512681 1.899642 7.072689 74.409843 0.685883 -0.735150 33.805365 -0.633400 -0.000000 -55.938699 9.279141 2.650190 -2.940910 11.177180 -8.917633 -60.136306 2.722232 -3.976632 43.924764 -2.124760 -4.586934 -18.030200 0.771100 0.000000 -51.890600
2.214660 16.469587 -1.267427 64.375914 -80.184756 -29.812540 -5.690495 -0.652738 1.163190 -18.694982 -24.095206 -115.511980 1.422532 7.147368 70.718468 0.422562 -1.337849 33.286310 -0.901400 0.000000 -55.944600 9.177416 2.632738 -3.058612 11.460858 -9.215409 -61.095902 2.826253 -4.086574 44.069684 -2.053268 -4.224421 -18.021099 0.733900 0.000001 -51.906700
2.226019 16.452871 -1.276446 63.680683 -79.890652 -28.347175 -5.834940 -0.252710 1.641227 -18.086351 -25.499745 -117.440263 0.831079 7.226632 66.542355 0.134478 -1.769335 32.561856 -1.020600 0.000000 -56.114801 9.065656 2.607779 -3.157555 11.740538 -9.396187 -62.176775 2.923506 -4.202645 44.255122 -1.995647 -3.912529 -18.033808 0.703100 -0.000000 -51.865400
